<svg width="200" height="200" viewBox="0 0 200 200" fill="none" xmlns="http://www.w3.org/2000/svg">
<g clip-path="url(#clip0_607_156)">
<rect width="200" height="200" fill="url(#paint0_linear_607_156)"/>
<g filter="url(#filter0_f_607_156)">
<rect x="-734.008" y="517.631" width="1547.92" height="451.215" transform="rotate(-15 -734.008 517.631)" fill="#241B70"/>
</g>
<path opacity="0.5" d="M573.327 1501.61C1193.97 662.065 -806.986 485.126 -1219 608.125" stroke="url(#paint1_linear_607_156)" stroke-width="239.708" stroke-linecap="round"/>
<path d="M86.7053 101.182C86.7053 111.92 85.299 121.807 82.4865 130.841C79.7024 139.847 75.7109 148.142 70.5121 155.727H61.6484C63.6939 152.915 65.5973 149.449 67.3587 145.33C69.1484 141.239 70.7109 136.75 72.0462 131.864C73.3814 126.949 74.4183 121.878 75.157 116.651C75.924 111.395 76.3075 106.239 76.3075 101.182C76.3075 94.4205 75.6541 87.5597 74.3473 80.5994C73.0405 73.6392 71.2791 67.1761 69.0632 61.2102C66.8473 55.2443 64.3757 50.3864 61.6484 46.6364H70.5121C75.7109 54.2216 79.7024 62.5312 82.4865 71.5653C85.299 80.571 86.7053 90.4432 86.7053 101.182ZM112.284 101.182C112.284 90.4432 113.676 80.571 116.46 71.5653C119.273 62.5312 123.278 54.2216 128.477 46.6364H137.341C135.295 49.4489 133.378 52.9148 131.588 57.0341C129.827 61.125 128.278 65.6278 126.943 70.5426C125.608 75.429 124.557 80.4858 123.79 85.7131C123.051 90.9403 122.682 96.0966 122.682 101.182C122.682 107.943 123.335 114.804 124.642 121.764C125.949 128.724 127.71 135.187 129.926 141.153C132.142 147.119 134.614 151.977 137.341 155.727H128.477C123.278 148.142 119.273 139.847 116.46 130.841C113.676 121.807 112.284 111.92 112.284 101.182Z" fill="white"/>
<path d="M98.1818 112.795C108.92 112.795 118.807 114.201 127.841 117.013C136.847 119.798 145.142 123.789 152.727 128.988V137.852C149.915 135.806 146.449 133.903 142.33 132.141C138.239 130.352 133.75 128.789 128.864 127.454C123.949 126.119 118.878 125.082 113.651 124.343C108.395 123.576 103.239 123.192 98.1818 123.192C91.4205 123.192 84.5597 123.846 77.5994 125.153C70.6392 126.46 64.1761 128.221 58.2102 130.437C52.2443 132.653 47.3864 135.124 43.6364 137.852V128.988C51.2216 123.789 59.5312 119.798 68.5653 117.013C77.571 114.201 87.4432 112.795 98.1818 112.795ZM98.1818 87.2159C87.4432 87.2159 77.571 85.8239 68.5653 83.0398C59.5312 80.2273 51.2216 76.2216 43.6364 71.0227V62.1591C46.4489 64.2045 49.9148 66.1222 54.0341 67.9119C58.125 69.6733 62.6278 71.2216 67.5426 72.5568C72.429 73.892 77.4858 74.9432 82.7131 75.7102C87.9403 76.4489 93.0966 76.8182 98.1818 76.8182C104.943 76.8182 111.804 76.1648 118.764 74.858C125.724 73.5511 132.187 71.7898 138.153 69.5739C144.119 67.358 148.977 64.8864 152.727 62.1591V71.0227C145.142 76.2216 136.847 80.2273 127.841 83.0398C118.807 85.8239 108.92 87.2159 98.1818 87.2159Z" fill="white"/>
</g>
<defs>
<filter id="filter0_f_607_156" x="-1167.08" y="-316.073" width="2478.1" height="1702.62" filterUnits="userSpaceOnUse" color-interpolation-filters="sRGB">
<feFlood flood-opacity="0" result="BackgroundImageFix"/>
<feBlend mode="normal" in="SourceGraphic" in2="BackgroundImageFix" result="shape"/>
<feGaussianBlur stdDeviation="216.536" result="effect1_foregroundBlur_607_156"/>
</filter>
<linearGradient id="paint0_linear_607_156" x1="9.71733e-07" y1="86.6728" x2="193.934" y2="98.0896" gradientUnits="userSpaceOnUse">
<stop stop-color="#030B2B"/>
<stop offset="1" stop-color="#270A64"/>
</linearGradient>
<linearGradient id="paint1_linear_607_156" x1="324.218" y1="-362.457" x2="-430.101" y2="892.224" gradientUnits="userSpaceOnUse">
<stop offset="0.194019" stop-color="#8EFD8F"/>
<stop offset="0.314037" stop-color="#6DCDCC"/>
<stop offset="0.636316" stop-color="#5529FF"/>
<stop offset="0.905409" stop-color="#5571FE"/>
</linearGradient>
<clipPath id="clip0_607_156">
<rect width="200" height="200" fill="white"/>
</clipPath>
</defs>
</svg>
